<?xml version="1.0" encoding="UTF-8" standalone="no"?>
<svg
   xmlns:dc="http://purl.org/dc/elements/1.1/"
   xmlns:cc="http://creativecommons.org/ns#"
   xmlns:rdf="http://www.w3.org/1999/02/22-rdf-syntax-ns#"
   xmlns:svg="http://www.w3.org/2000/svg"
   xmlns="http://www.w3.org/2000/svg"
   xmlns:sodipodi="http://sodipodi.sourceforge.net/DTD/sodipodi-0.dtd"
   xmlns:inkscape="http://www.inkscape.org/namespaces/inkscape"
   version="1.0"
   width="800.000000pt"
   height="800.000000pt"
   viewBox="0 0 800.000000 800.000000"
   preserveAspectRatio="xMidYMid meet"
   id="svg308"
   sodipodi:docname="menu2.svg"
   inkscape:version="1.0 (4035a4fb49, 2020-05-01)">
  <metadata
     id="metadata314">
    <rdf:RDF>
      <cc:Work
         rdf:about="">
        <dc:format>image/svg+xml</dc:format>
        <dc:type
           rdf:resource="http://purl.org/dc/dcmitype/StillImage" />
        <dc:title></dc:title>
      </cc:Work>
    </rdf:RDF>
  </metadata>
  <defs
     id="defs312" />
  <sodipodi:namedview
     inkscape:document-rotation="0"
     pagecolor="#ffffff"
     bordercolor="#666666"
     borderopacity="1"
     objecttolerance="10"
     gridtolerance="10"
     guidetolerance="10"
     inkscape:pageopacity="0"
     inkscape:pageshadow="2"
     inkscape:window-width="1920"
     inkscape:window-height="1017"
     id="namedview310"
     showgrid="false"
     inkscape:zoom="0.796875"
     inkscape:cx="533.33333"
     inkscape:cy="483.13725"
     inkscape:window-x="-8"
     inkscape:window-y="-8"
     inkscape:window-maximized="1"
     inkscape:current-layer="svg308" />
  <g
     transform="matrix(0.03708839,0,0,-0.03708839,256.26683,549.65112)"
     fill="#000000"
     stroke="none"
     id="g306"
     style="fill:#cccccc">
    <path
       d="m 3889,7295 c -4,-6 -21,-140 -40,-298 -19,-159 -37,-294 -41,-300 -3,-5 -53,-14 -110,-18 -353,-25 -677,-113 -1003,-273 -859,-422 -1424,-1253 -1505,-2215 -6,-69 -12,-126 -13,-128 -2,-1 -121,-17 -265,-34 -259,-32 -296,-40 -277,-57 6,-5 129,-23 274,-41 146,-17 266,-32 268,-34 1,-2 7,-59 13,-128 94,-1109 826,-2030 1886,-2368 206,-66 505,-121 660,-121 57,0 65,-2 74,-22 5,-13 23,-147 40,-298 17,-151 35,-284 39,-295 6,-14 12,13 21,85 7,58 25,199 39,315 l 26,210 50,2 c 1116,52 2091,795 2444,1861 68,206 115,445 127,653 l 7,107 31,5 c 17,2 158,20 314,38 155,19 282,36 282,39 0,4 -105,19 -232,34 -128,15 -270,32 -315,38 l -83,11 v 51 c 0,28 -5,92 -10,141 -104,928 -645,1718 -1463,2134 -298,152 -638,253 -952,281 -66,6 -138,13 -161,16 l -41,5 -32,272 c -36,295 -44,347 -52,332 z m 314,-2737 5,-37 -154,-121 -154,-120 1,1367 1,1368 148,-1210 c 82,-665 150,-1227 153,-1247 z m -407,2000 c -3,-18 -13,-100 -23,-183 -10,-82 -19,-134 -21,-115 -6,89 -13,120 -29,120 -13,0 -14,-14 -8,-112 4,-62 12,-116 18,-120 8,-5 6,-53 -7,-165 -24,-220 -13,-199 -109,-213 -97,-14 -237,-49 -332,-84 -38,-14 -71,-23 -73,-21 -2,2 -35,75 -72,161 -48,110 -66,162 -59,170 7,8 -4,45 -33,118 -33,82 -46,105 -59,101 -12,-4 -24,15 -52,79 -20,47 -37,89 -37,93 0,10 130,58 260,97 179,53 402,91 614,104 27,2 28,0 22,-30 z m 454,6 c 63,-8 167,-26 230,-40 144,-32 390,-113 390,-129 0,-25 -69,-180 -80,-180 -16,0 -101,-213 -87,-218 10,-3 -109,-323 -124,-333 -4,-2 -30,5 -58,16 -74,29 -263,77 -357,91 l -81,12 -21,180 c -14,113 -19,183 -13,187 11,6 17,46 26,158 5,67 4,72 -15,72 -18,0 -20,-7 -20,-62 0,-100 -16,-55 -34,97 -23,195 -29,176 57,169 39,-3 124,-12 187,-20 z m 785,-235 c 215,-103 455,-266 618,-420 l 77,-74 -279,-284 -279,-285 -58,54 c -122,111 -321,244 -457,304 l -58,25 14,33 c 7,18 74,185 148,370 121,305 136,337 154,331 11,-3 65,-27 120,-54 z M 3031,6023 c 85,-197 154,-361 154,-364 0,-4 -54,-34 -120,-68 -130,-67 -258,-154 -367,-250 -38,-33 -73,-61 -78,-61 -13,0 -571,542 -568,551 5,15 172,160 263,229 127,96 249,171 408,251 76,38 142,69 146,69 4,0 77,-161 162,-357 z m -712,-491 283,-277 -71,-80 c -90,-100 -206,-273 -263,-390 -23,-49 -44,-92 -45,-94 -2,-4 -725,279 -736,289 -22,20 179,384 307,553 70,94 226,277 236,277 3,0 133,-125 289,-278 z m 3519,186 c 161,-185 285,-367 391,-577 65,-127 70,-141 53,-150 -29,-15 -715,-311 -716,-308 -1,1 -23,47 -50,102 -63,130 -134,239 -236,360 l -82,97 38,42 c 149,160 208,215 222,204 10,-9 31,6 97,72 53,53 81,88 75,94 -6,6 -15,4 -25,-4 -8,-7 -15,-9 -15,-5 0,9 151,165 160,165 4,0 43,-42 88,-92 z m -2141,18 c -3,-7 -9,-50 -12,-94 -4,-44 -11,-85 -15,-91 -4,-7 -48,-21 -98,-31 -51,-11 -131,-32 -178,-48 l -86,-29 -33,71 c -52,114 -52,113 -8,131 66,28 204,65 313,85 131,23 123,23 117,6 z m 563,-17 c 79,-15 294,-80 305,-91 3,-3 -64,-177 -71,-186 -1,-2 -51,12 -111,31 -59,19 -135,40 -168,46 -33,7 -69,14 -81,16 -18,4 -22,16 -32,99 -7,52 -12,99 -12,105 0,11 32,7 170,-20 z M 3243,5532 c 20,-48 37,-90 37,-94 0,-3 -38,-25 -84,-47 -97,-47 -235,-137 -321,-210 -32,-28 -63,-51 -68,-51 -10,0 -151,109 -155,120 -5,12 169,155 264,217 70,45 268,152 284,153 3,0 22,-39 43,-88 z m 1456,34 c 48,-25 135,-76 192,-115 101,-68 239,-184 239,-201 0,-5 -35,-35 -77,-68 l -77,-60 -55,50 c -73,65 -226,166 -323,214 -43,21 -78,43 -78,48 0,26 66,176 78,176 7,0 52,-20 101,-44 z m -1048,-200 -16,-139 -103,-32 c -99,-31 -103,-32 -113,-14 -6,13 -6,25 1,38 5,11 10,28 10,39 0,26 -37,72 -59,72 -12,0 -24,15 -34,42 -9,23 -16,42 -14,43 19,16 334,99 343,91 1,0 -6,-64 -15,-140 z m 641,104 c 130,-34 190,-59 183,-78 -4,-10 -11,-29 -16,-43 -8,-21 -15,-25 -34,-21 -59,11 -99,-22 -97,-81 1,-31 27,-67 49,-67 13,0 18,-12 7,-22 -3,-3 -27,3 -54,13 -27,10 -78,26 -113,35 l -65,16 -11,86 c -6,48 -13,112 -17,143 l -7,57 49,-9 c 27,-5 84,-18 126,-29 z m -978,-102 c 13,-30 12,-33 -15,-56 -60,-50 -21,-138 61,-135 64,3 56,-20 -19,-55 -76,-35 -199,-113 -252,-160 l -35,-31 -80,62 c -44,34 -93,73 -109,86 l -30,23 55,49 c 30,27 87,72 127,100 73,50 254,149 274,149 5,0 16,-14 23,-32 z m 1431,-103 c 44,-28 109,-76 144,-105 l 64,-54 -34,-28 c -19,-16 -68,-55 -109,-87 l -76,-58 -82,62 c -46,34 -121,82 -168,106 -46,24 -82,49 -81,54 2,6 16,16 31,23 37,18 57,66 44,104 -8,22 -6,40 7,73 l 16,44 82,-40 c 45,-23 118,-65 162,-94 z m -2091,-83 c 17,-20 44,-55 62,-77 l 33,-41 -55,-64 c -76,-91 -146,-193 -197,-291 -24,-46 -46,-90 -48,-97 -4,-10 -27,-5 -97,23 -51,20 -92,43 -92,49 0,20 85,180 142,268 56,85 203,268 216,268 4,0 20,-17 36,-38 z m 2563,-14 c 64,-67 150,-184 210,-285 50,-87 103,-194 103,-211 0,-4 -41,-25 -92,-47 -73,-31 -93,-36 -96,-24 -3,8 -27,56 -53,107 -54,105 -135,223 -205,301 -43,48 -45,53 -31,74 21,32 108,127 116,127 4,0 25,-19 48,-42 z m -1604,-78 c -4,-4 -39,-18 -78,-30 -111,-37 -183,-72 -286,-142 -95,-65 -96,-65 -120,-47 -23,17 -23,18 -4,39 43,47 263,180 299,180 8,0 17,-6 19,-12 4,-8 8,-4 12,9 6,18 25,28 84,47 l 76,24 3,-30 c 2,-17 0,-34 -5,-38 z m 711,19 c 14,-7 26,-19 26,-26 0,-10 6,-12 20,-8 25,8 152,-58 245,-128 l 68,-51 -27,-22 -26,-23 -67,50 c -99,74 -261,150 -390,184 0,0 -4,17 -8,37 l -7,37 70,-19 c 38,-11 82,-25 96,-31 z m -986,-438 542,-424 v -119 -120 l -217,210 c -271,262 -904,897 -882,886 9,-5 260,-200 557,-433 z m 1645,371 c -21,-27 -213,-272 -428,-545 l -389,-497 h -125 -125 l 550,544 c 302,300 551,545 552,545 2,1 -14,-21 -35,-47 z m -1373,-4 c -1,-42 -57,-479 -63,-484 -3,-3 -87,58 -186,137 -153,119 -180,144 -169,156 37,45 221,148 338,189 82,28 80,28 80,2 z m 652,-4 c 40,-15 102,-41 138,-59 67,-34 215,-134 208,-140 -16,-16 -364,-285 -369,-285 -3,0 -18,105 -33,233 -15,127 -30,242 -33,255 -7,28 0,28 89,-4 z m -1402,-112 81,-103 -32,-37 c -44,-50 -123,-171 -154,-238 -19,-40 -31,-54 -41,-50 -9,3 -20,6 -25,6 -5,0 -9,7 -9,16 0,22 -54,74 -77,74 -10,0 -29,-6 -43,-13 -31,-16 -80,-3 -80,21 0,23 95,194 152,273 58,82 128,161 138,157 5,-2 45,-49 90,-106 z m 2232,31 c 81,-103 139,-193 188,-295 l 41,-83 -41,-18 -41,-18 -30,25 c -38,32 -70,33 -105,3 -21,-19 -27,-32 -26,-60 2,-46 -11,-48 -28,-4 -22,55 -91,169 -148,245 -38,50 -51,76 -45,85 108,139 156,197 164,197 5,0 37,-35 71,-77 z m 1244,-48 c 85,-206 171,-621 162,-777 l -3,-53 -170,21 -170,21 73,8 c 54,6 72,11 72,23 0,13 -16,14 -117,9 -69,-4 -119,-11 -123,-18 -10,-15 -351,26 -362,44 -4,6 -8,23 -8,35 0,47 -42,230 -76,331 -19,58 -31,108 -27,112 4,4 77,38 162,74 106,46 156,63 161,56 11,-19 218,67 222,91 2,13 27,30 78,53 41,19 81,33 88,32 8,-1 25,-29 38,-62 z m -4759,15 c 46,-19 80,-37 77,-44 -5,-15 206,-98 220,-87 7,6 72,-15 170,-55 87,-35 160,-65 162,-67 2,-2 -12,-50 -31,-106 -35,-104 -68,-242 -80,-338 -4,-29 -10,-53 -13,-53 -3,0 -84,-10 -180,-21 -122,-15 -176,-18 -181,-11 -4,6 -57,15 -119,19 -101,8 -112,7 -112,-8 0,-13 15,-18 73,-24 l 72,-8 -145,-18 c -80,-10 -160,-20 -178,-23 l -34,-5 7,87 c 16,213 58,429 120,619 48,150 64,186 78,180 7,-3 49,-20 94,-37 z m 1388,-279 c -65,-93 -124,-210 -155,-306 -12,-38 -26,-74 -30,-78 -4,-5 -21,-7 -38,-5 l -30,3 29,91 c 23,73 34,93 52,98 18,5 20,8 7,16 -13,8 -9,21 24,84 21,41 64,108 95,150 l 56,76 22,-25 23,-26 z m 1930,10 c 76,-115 118,-202 105,-215 -15,-15 -12,-29 4,-23 14,6 25,-15 55,-112 15,-48 14,-51 -18,-51 -35,0 -42,9 -65,85 -28,91 -89,213 -150,299 -31,42 -56,79 -56,82 0,3 8,16 18,29 22,30 27,25 107,-94 z M 3186,4507 c 78,-100 141,-183 140,-184 -3,-4 -509,-63 -512,-60 -7,7 43,143 81,217 52,104 126,211 144,209 3,0 70,-82 147,-182 z m 1614,126 c 73,-102 186,-350 168,-368 -5,-5 -499,53 -505,59 -5,5 280,366 288,366 4,0 26,-26 49,-57 z m -2465,-14 c 44,-18 84,-35 88,-39 5,-4 -3,-41 -17,-81 -15,-41 -37,-123 -51,-183 -13,-59 -25,-110 -27,-111 -4,-5 -155,-25 -182,-25 -22,0 -22,2 -14,66 17,127 97,404 116,404 4,0 43,-14 87,-31 z m 3234,-36 c 28,-76 77,-273 86,-347 l 8,-59 -69,7 c -38,4 -85,9 -105,12 l -36,6 -16,87 c -9,48 -31,129 -48,180 -17,51 -29,95 -26,97 7,8 162,73 173,74 6,0 21,-26 33,-57 z m -3049,-71 c 0,-76 83,-110 136,-57 16,16 32,24 44,20 16,-5 15,-14 -18,-118 -20,-62 -36,-113 -38,-115 -4,-7 -265,-35 -271,-29 -10,11 15,132 53,249 l 35,107 29,-11 c 26,-8 30,-15 30,-46 z m 2836,-35 c 29,-87 68,-256 61,-264 -6,-5 -182,11 -254,23 -21,4 -33,12 -33,22 0,9 -12,54 -26,100 -14,46 -23,86 -20,89 2,3 21,-1 41,-8 46,-17 83,1 104,48 13,30 71,66 95,59 5,-1 20,-32 32,-69 z M 3432,4193 c 42,-54 95,-122 118,-150 l 42,-53 -1359,1 -1358,1 1200,148 c 660,81 1218,148 1240,149 40,1 42,-1 117,-96 z m 438,-226 c 0,-1 -253,-254 -562,-562 -308,-308 -544,-537 -522,-509 21,28 219,281 439,562 l 400,511 123,1 c 67,0 122,-1 122,-3 z m 1820,-148 c -668,-81 -1225,-149 -1237,-149 -19,0 -94,88 -246,288 -8,9 263,12 1344,11 l 1354,-1 z m -1225,-420 550,-551 -270,210 c -148,116 -396,309 -550,429 l -280,219 -3,122 c -1,67 -1,122 0,122 2,0 251,-248 553,-551 z m -2975,462 145,-17 -72,-8 c -56,-6 -73,-12 -73,-24 0,-13 15,-14 112,-8 63,4 115,11 119,17 5,8 48,7 150,-5 238,-28 216,-21 223,-75 15,-105 40,-212 74,-316 20,-60 37,-114 37,-118 0,-15 -317,-148 -330,-137 -8,6 -46,-4 -118,-33 -84,-33 -106,-46 -102,-58 4,-13 -14,-25 -79,-53 -46,-20 -88,-36 -93,-36 -14,0 -82,192 -118,335 -38,148 -60,273 -75,424 -14,148 -16,141 23,135 17,-3 97,-13 177,-23 z m 5007,-78 c -13,-210 -68,-472 -143,-681 -30,-83 -40,-102 -53,-97 -9,4 -51,20 -93,37 -43,16 -78,35 -78,42 0,16 -211,101 -219,88 -3,-5 -75,18 -173,56 l -166,65 25,66 c 33,88 80,272 88,348 4,33 11,66 14,72 11,17 351,57 360,42 4,-6 56,-13 124,-17 102,-6 117,-5 117,9 0,12 -17,17 -77,23 l -78,8 170,21 c 94,13 174,23 179,24 5,0 6,-44 3,-106 z m -4248,-13 c 41,-6 76,-12 78,-14 2,-2 16,-55 30,-117 14,-63 36,-143 49,-178 13,-35 23,-65 22,-66 -7,-6 -173,-75 -180,-75 -20,0 -89,227 -111,373 l -14,87 h 26 c 14,0 59,-5 100,-10 z m 3406,-42 c -15,-119 -93,-400 -115,-413 -5,-3 -49,11 -98,30 l -90,36 38,117 c 21,64 44,149 51,189 l 12,72 41,5 c 23,3 52,7 66,10 14,2 42,4 63,5 l 39,1 z m -250,-60 c -22,-113 -75,-268 -90,-268 -23,0 -86,31 -81,39 9,14 -15,71 -34,81 -31,16 -75,11 -99,-11 -12,-12 -24,-19 -27,-16 -2,2 9,46 26,96 16,51 30,101 30,112 0,10 3,19 8,20 4,0 68,8 142,18 74,9 137,16 139,15 1,-2 -4,-40 -14,-86 z m -2877,68 c 63,-8 115,-16 116,-18 2,-2 15,-42 30,-91 15,-48 29,-93 32,-101 8,-20 -35,-28 -60,-10 -48,33 -126,-3 -126,-59 0,-18 -8,-28 -30,-37 -17,-7 -32,-11 -34,-9 -16,19 -86,274 -86,317 0,27 4,27 158,8 z m 283,-112 c 34,-102 105,-241 163,-318 46,-60 48,-76 14,-104 -30,-24 -225,290 -200,321 13,16 6,28 -12,21 -8,-3 -17,10 -24,33 -7,21 -19,60 -27,86 l -14,48 36,-3 c 36,-3 37,-4 64,-84 z m 2259,79 c 0,-5 -12,-46 -27,-92 -18,-59 -32,-85 -45,-89 -19,-5 -25,-22 -8,-22 22,0 -52,-137 -135,-248 l -46,-63 -20,24 c -10,14 -19,28 -19,30 0,3 24,39 53,80 64,89 127,215 157,315 22,71 22,72 56,72 19,0 34,-3 34,-7 z m -1996,-34 c 138,-17 252,-31 252,-32 3,-3 -255,-329 -276,-351 -18,-18 -19,-17 -65,45 -55,75 -112,184 -149,287 -14,40 -26,75 -26,78 0,6 -13,7 264,-27 z m 1896,16 c 0,-21 -43,-131 -80,-205 -39,-78 -130,-212 -141,-208 -17,6 -290,363 -280,366 12,4 446,59 479,61 13,1 22,-5 22,-14 z M 3889,2308 c 0,-755 -2,-1368 -5,-1363 -2,6 -71,568 -154,1249 -146,1194 -150,1240 -133,1257 18,18 286,228 291,229 1,0 2,-618 1,-1372 z M 2765,3401 c 24,-49 73,-128 109,-175 l 65,-86 -81,-102 c -44,-57 -84,-104 -88,-106 -22,-8 -170,191 -243,328 -62,117 -65,128 -32,140 21,8 31,6 55,-11 22,-17 36,-20 63,-15 41,8 53,20 62,61 11,50 14,55 30,55 9,0 33,-36 60,-89 z m 2315,41 c 0,-16 9,-37 20,-47 26,-23 85,-25 106,-3 15,15 20,15 60,0 24,-9 44,-21 44,-27 0,-13 -77,-156 -122,-225 -44,-69 -157,-210 -168,-210 -8,0 -162,191 -167,208 -2,4 24,43 57,87 33,44 79,117 103,162 43,85 67,105 67,55 z m -1526,-59 c 12,-60 59,-474 54,-479 -3,-2 -38,7 -79,22 -153,54 -364,183 -340,207 20,20 346,276 353,276 3,1 9,-11 12,-26 z m 880,-120 177,-138 -28,-23 c -85,-70 -289,-173 -387,-196 -26,-6 -28,-5 -23,16 3,13 18,128 33,256 20,168 31,232 39,228 7,-2 92,-67 189,-143 z m -1955,23 c 49,-102 139,-238 215,-325 l 56,-64 -33,-41 c -18,-23 -46,-58 -63,-78 -16,-21 -32,-38 -36,-38 -12,0 -162,185 -214,265 -49,75 -159,285 -152,289 8,6 174,75 180,76 3,0 25,-38 47,-84 z m 2974,32 c 42,-16 77,-33 77,-36 0,-4 -22,-51 -50,-105 -62,-123 -170,-282 -252,-371 l -63,-69 -56,69 c -30,38 -58,74 -62,81 -5,7 16,41 54,85 78,94 149,201 201,306 32,63 45,81 57,76 9,-3 51,-19 94,-36 z M 2279,3155 c 70,-136 160,-267 256,-372 l 66,-73 -278,-286 -278,-286 -79,84 c -97,101 -232,280 -308,408 -65,111 -174,327 -168,334 6,5 724,315 726,313 1,-1 30,-56 63,-122 z m 3661,-29 c 190,-76 349,-141 354,-146 18,-18 -110,-271 -227,-445 -68,-103 -182,-247 -259,-330 l -53,-56 -274,264 c -151,146 -278,272 -283,281 -7,12 10,37 67,103 96,111 181,239 248,371 37,73 56,102 67,99 8,-3 170,-66 360,-141 z m -2694,-82 c 78,-55 191,-111 289,-144 76,-25 80,-28 83,-58 4,-40 -2,-40 -108,-6 -57,18 -80,29 -77,39 4,9 -4,13 -28,12 -37,-1 -192,86 -260,147 l -40,36 25,19 c 20,16 28,18 41,8 9,-7 43,-31 75,-53 z m 1413,42 22,-23 -69,-51 c -97,-72 -236,-145 -262,-137 -14,4 -20,2 -20,-8 0,-8 -8,-17 -17,-20 -10,-3 -49,-15 -87,-26 l -68,-20 7,37 c 4,20 8,37 8,38 1,0 34,11 72,23 98,31 238,102 315,160 36,27 68,50 71,50 3,1 16,-10 28,-23 z M 3298,2862 c 86,-45 105,-72 52,-72 -68,0 -102,-79 -59,-134 18,-24 20,-30 9,-56 -7,-17 -18,-30 -26,-30 -43,0 -291,154 -384,238 l -55,50 30,23 c 16,13 65,52 108,86 l 78,61 82,-62 c 45,-34 119,-81 165,-104 z m 1621,20 34,-28 -79,-64 c -43,-35 -108,-82 -144,-105 -66,-43 -223,-125 -238,-125 -5,0 -16,19 -25,42 -15,37 -15,43 -2,58 38,42 -2,130 -60,130 -14,0 -25,4 -25,8 0,4 43,30 95,57 52,26 132,76 177,110 l 83,63 75,-59 c 41,-32 90,-71 109,-87 z M 2924,2742 c 82,-66 232,-159 304,-187 23,-10 42,-20 42,-23 0,-4 -16,-48 -36,-99 l -37,-92 -107,54 c -60,30 -146,80 -191,111 -96,65 -251,193 -247,204 2,4 37,34 78,67 72,58 76,59 96,44 12,-9 56,-44 98,-79 z m 2171,4 40,-34 -25,-27 c -44,-48 -183,-155 -275,-212 -104,-65 -247,-135 -256,-125 -3,4 -16,32 -29,62 -13,30 -29,69 -36,86 l -13,32 87,42 c 104,50 256,150 332,218 l 55,50 40,-29 c 22,-16 58,-45 80,-63 z m -1585,29 c 47,-15 94,-30 105,-34 17,-7 22,-26 36,-142 9,-74 14,-136 12,-138 -12,-15 -297,59 -342,88 -11,7 -11,15 -1,45 6,20 18,36 25,36 30,0 64,24 76,52 10,24 9,35 -4,64 -20,41 -22,68 -4,60 6,-2 50,-17 97,-31 z m 850,15 c 0,-6 -10,-24 -21,-40 -37,-49 1,-120 63,-120 24,0 32,-7 44,-35 7,-19 14,-38 14,-43 0,-17 -258,-92 -319,-92 -22,0 -23,2 -18,48 4,26 12,88 18,138 l 11,92 67,17 c 36,10 80,24 96,31 37,16 45,17 45,4 z M 2661,2654 c 90,-95 337,-262 463,-315 31,-12 56,-26 56,-30 0,-11 -282,-723 -290,-732 -11,-12 -296,135 -425,220 -130,86 -295,216 -362,285 l -42,43 275,283 c 152,155 279,282 283,282 4,0 23,-16 42,-36 z m 2877,-326 202,-196 -62,-57 c -89,-83 -230,-193 -333,-262 -159,-105 -421,-242 -436,-226 -8,10 -309,705 -309,715 0,5 49,32 108,62 135,68 262,153 372,249 l 85,74 85,-81 c 47,-45 176,-170 288,-278 z m -2129,158 c 59,-19 138,-40 176,-47 39,-7 75,-18 81,-26 7,-7 15,-48 18,-91 4,-42 9,-85 12,-94 6,-20 -7,-19 -167,13 -91,18 -269,70 -297,88 -10,6 -5,28 23,99 21,51 40,92 43,92 3,0 53,-15 111,-34 z m 1112,-64 38,-87 -37,-17 c -61,-28 -210,-68 -322,-87 -58,-10 -106,-17 -108,-16 -2,2 2,49 9,104 11,90 15,102 33,106 84,16 217,50 273,69 38,13 70,22 73,19 2,-2 21,-43 41,-91 z M 3282,2275 c 86,-31 240,-70 340,-85 90,-15 80,6 104,-213 13,-112 15,-160 7,-165 -6,-4 -14,-58 -18,-119 -6,-99 -5,-113 8,-113 16,0 23,30 29,120 2,19 11,-32 21,-115 10,-82 20,-165 24,-183 l 5,-32 -53,5 c -306,29 -449,56 -663,126 -83,27 -156,52 -162,56 -14,10 54,193 70,187 15,-5 100,206 88,218 -9,9 115,338 126,338 3,0 36,-11 74,-25 z m 1361,-133 c 67,-157 75,-182 58,-182 -8,0 18,-71 76,-207 2,-6 11,-9 18,-7 16,6 17,5 60,-95 l 34,-81 -37,-16 c -133,-55 -375,-122 -542,-148 -102,-16 -312,-36 -319,-30 -7,6 31,309 40,319 5,5 9,-17 9,-53 0,-55 2,-62 20,-62 19,0 20,5 15,73 -9,112 -15,151 -26,157 -6,4 -1,74 13,188 l 22,181 51,6 c 95,13 232,45 331,79 54,19 101,35 104,35 3,0 35,-70 73,-157 z"
       id="path2"
       style="fill:#cccccc" />
    <path
       d="m 3629,6375 c -4,-3 14,-206 20,-232 1,-2 8,-3 16,-3 18,0 18,10 4,140 -11,91 -21,115 -40,95 z"
       id="path4"
       style="fill:#cccccc" />
    <path
       d="m 3547,6362 c -5,-8 22,-223 29,-231 2,-2 9,-1 17,2 11,4 11,23 -2,118 -14,101 -29,137 -44,111 z"
       id="path6"
       style="fill:#cccccc" />
    <path
       d="m 3461,6333 c 0,-10 8,-61 18,-113 13,-73 21,-96 34,-98 9,-2 17,1 17,6 0,10 -27,159 -35,200 -6,26 -35,30 -34,5 z"
       id="path8"
       style="fill:#cccccc" />
    <path
       d="m 3384,6326 c -4,-11 33,-214 41,-224 1,-1 9,0 18,3 13,6 13,13 2,63 -7,31 -18,83 -25,115 -11,55 -25,72 -36,43 z"
       id="path10"
       style="fill:#cccccc" />
    <path
       d="m 3298,6315 c -3,-3 7,-54 21,-113 21,-83 31,-108 46,-110 14,-3 17,1 12,17 -3,12 -15,64 -28,116 -20,84 -33,107 -51,90 z"
       id="path12"
       style="fill:#cccccc" />
    <path
       d="m 3224,6292 c -8,-5 -2,-39 20,-114 25,-88 34,-108 49,-108 13,0 17,5 14,14 -3,8 -18,60 -34,115 -15,56 -30,101 -33,101 -3,0 -10,-4 -16,-8 z"
       id="path14"
       style="fill:#cccccc" />
    <path
       d="m 3134,6252 c 53,-167 72,-211 86,-202 22,14 -46,220 -73,220 -13,0 -17,-5 -13,-18 z"
       id="path16"
       style="fill:#cccccc" />
    <path
       d="m 3063,6243 c -10,-4 14,-84 62,-205 7,-19 35,-25 35,-8 0,14 -70,204 -78,211 -4,4 -12,5 -19,2 z"
       id="path18"
       style="fill:#cccccc" />
    <path
       d="m 4127,6358 c -6,-22 -21,-197 -19,-208 0,-3 7,-6 15,-8 11,-2 17,22 26,107 7,61 10,115 6,121 -10,17 -22,11 -28,-12 z"
       id="path20"
       style="fill:#cccccc" />
    <path
       d="m 4201,6288 c -7,-46 -15,-100 -18,-122 -5,-33 -4,-38 13,-34 16,3 21,20 32,106 8,57 11,110 8,118 -12,32 -24,9 -35,-68 z"
       id="path22"
       style="fill:#cccccc" />
    <path
       d="m 4277,6253 c -21,-118 -21,-133 -3,-133 10,0 19,28 30,93 9,50 19,102 21,115 4,16 1,22 -13,22 -16,0 -21,-16 -35,-97 z"
       id="path24"
       style="fill:#cccccc" />
    <path
       d="m 4375,6328 c -2,-7 -13,-58 -25,-112 -16,-79 -18,-101 -8,-107 7,-5 15,-3 19,4 12,22 49,209 43,218 -8,13 -24,11 -29,-3 z"
       id="path26"
       style="fill:#cccccc" />
    <path
       d="m 4451,6283 c -47,-179 -49,-193 -27,-193 9,0 22,35 40,105 30,122 31,125 11,125 -8,0 -18,-16 -24,-37 z"
       id="path28"
       style="fill:#cccccc" />
    <path
       d="m 4540,6298 c 0,-2 -13,-50 -30,-108 -35,-121 -35,-120 -16,-120 10,0 24,30 41,87 31,100 35,134 18,140 -7,3 -13,3 -13,1 z"
       id="path30"
       style="fill:#cccccc" />
    <path
       d="m 4586,6163 c -27,-81 -33,-109 -24,-115 19,-11 23,-3 57,109 36,117 35,113 17,113 -9,0 -27,-38 -50,-107 z"
       id="path32"
       style="fill:#cccccc" />
    <path
       d="m 4662,6139 c -33,-90 -37,-111 -26,-116 19,-7 15,-14 57,103 42,115 41,110 23,117 -10,4 -25,-25 -54,-104 z"
       id="path34"
       style="fill:#cccccc" />
    <path
       d="m 4809,6078 c -38,-84 -43,-105 -32,-111 8,-5 16,-7 17,-5 3,3 80,173 93,206 3,7 -3,12 -13,12 -14,0 -31,-26 -65,-102 z"
       id="path36"
       style="fill:#cccccc" />
    <path
       d="m 4882,6045 c -43,-87 -49,-107 -37,-112 20,-7 15,-14 69,96 43,84 51,121 29,121 -5,0 -32,-47 -61,-105 z"
       id="path38"
       style="fill:#cccccc" />
    <path
       d="m 4955,6014 c -62,-119 -59,-110 -41,-117 11,-5 30,21 70,96 30,55 52,105 50,109 -14,22 -33,0 -79,-88 z"
       id="path40"
       style="fill:#cccccc" />
    <path
       d="m 5026,5974 c -52,-88 -60,-114 -36,-114 13,0 122,189 115,200 -13,20 -25,7 -79,-86 z"
       id="path42"
       style="fill:#cccccc" />
    <path
       d="m 5095,5933 c -33,-53 -59,-99 -58,-102 1,-3 8,-7 15,-9 14,-3 120,158 122,185 3,41 -24,15 -79,-74 z"
       id="path44"
       style="fill:#cccccc" />
    <path
       d="m 5162,5889 c -66,-97 -71,-109 -47,-109 18,0 138,177 130,190 -12,19 -22,9 -83,-81 z"
       id="path46"
       style="fill:#cccccc" />
    <path
       d="m 5230,5847 c -77,-107 -75,-103 -56,-110 10,-4 34,21 75,78 70,95 77,110 59,117 -8,3 -39,-30 -78,-85 z"
       id="path48"
       style="fill:#cccccc" />
    <path
       d="m 5304,5813 c -90,-117 -85,-109 -71,-122 10,-8 27,8 73,66 90,117 85,109 71,122 -10,8 -27,-8 -73,-66 z"
       id="path50"
       style="fill:#cccccc" />
    <path
       d="m 5352,5743 c -50,-61 -68,-90 -61,-98 11,-10 43,22 126,122 31,37 37,63 14,63 -4,0 -39,-39 -79,-87 z"
       id="path52"
       style="fill:#cccccc" />
    <path
       d="m 5416,5695 c -68,-75 -84,-105 -57,-105 5,0 43,38 85,84 60,67 73,86 62,95 -10,8 -30,-8 -90,-74 z"
       id="path54"
       style="fill:#cccccc" />
    <path
       d="m 5472,5637 c -68,-68 -81,-86 -69,-95 11,-9 30,5 96,73 71,73 91,105 63,105 -4,0 -45,-37 -90,-83 z"
       id="path56"
       style="fill:#cccccc" />
    <path
       d="m 2910,6180 c -11,-7 -6,-27 30,-107 50,-112 56,-121 71,-106 7,7 -4,41 -36,114 -25,56 -47,104 -48,105 -1,2 -9,-1 -17,-6 z"
       id="path58"
       style="fill:#cccccc" />
    <path
       d="m 2827,6144 c -6,-6 77,-192 94,-208 6,-6 13,-6 20,1 7,7 -4,40 -40,112 -48,95 -59,109 -74,95 z"
       id="path60"
       style="fill:#cccccc" />
    <path
       d="m 2755,6101 c -3,-6 18,-56 47,-110 42,-79 57,-98 68,-91 12,8 6,26 -37,107 -52,97 -65,114 -78,94 z"
       id="path62"
       style="fill:#cccccc" />
    <path
       d="m 2677,6063 c -8,-13 107,-203 121,-200 21,4 16,17 -40,114 -48,85 -69,106 -81,86 z"
       id="path64"
       style="fill:#cccccc" />
    <path
       d="m 2613,6022 c -9,-6 4,-35 48,-105 33,-53 64,-97 69,-97 24,0 16,26 -31,102 -64,101 -71,109 -86,100 z"
       id="path66"
       style="fill:#cccccc" />
    <path
       d="m 2536,5972 c -3,-5 25,-52 61,-105 51,-73 70,-94 79,-86 10,8 -1,31 -49,105 -58,87 -78,106 -91,86 z"
       id="path68"
       style="fill:#cccccc" />
    <path
       d="m 2473,5929 c -8,-8 6,-36 55,-105 37,-51 71,-93 75,-93 26,-2 10,38 -48,118 -37,50 -68,91 -69,91 -1,0 -7,-5 -13,-11 z"
       id="path70"
       style="fill:#cccccc" />
    <path
       d="m 2400,5870 c 0,-18 132,-180 147,-180 24,0 14,20 -53,106 -59,75 -94,103 -94,74 z"
       id="path72"
       style="fill:#cccccc" />
    <path
       d="m 2336,5822 c -7,-11 131,-177 146,-177 27,0 14,25 -52,103 -68,79 -83,91 -94,74 z"
       id="path74"
       style="fill:#cccccc" />
    <path
       d="m 2275,5770 c -12,-20 139,-185 161,-176 17,7 10,17 -91,129 -54,60 -60,63 -70,47 z"
       id="path76"
       style="fill:#cccccc" />
    <path
       d="m 2214,5709 c -10,-16 153,-176 166,-163 6,6 -15,37 -66,92 -77,83 -87,91 -100,71 z"
       id="path78"
       style="fill:#cccccc" />
    <path
       d="m 2154,5649 c -11,-18 157,-171 173,-157 9,7 -8,30 -69,87 -90,85 -93,87 -104,70 z"
       id="path80"
       style="fill:#cccccc" />
    <path
       d="m 2095,5590 c -6,-9 33,-48 137,-139 32,-28 39,-31 44,-16 4,9 3,20 -2,24 -82,75 -159,141 -165,141 -4,0 -11,-5 -14,-10 z"
       id="path82"
       style="fill:#cccccc" />
    <path
       d="m 2046,5533 c -13,-13 -4,-24 79,-93 73,-62 105,-78 105,-52 0,7 -142,131 -166,145 -6,3 -14,4 -18,0 z"
       id="path84"
       style="fill:#cccccc" />
    <path
       d="m 1990,5457 c 0,-15 162,-147 180,-147 29,0 1,35 -74,94 -86,67 -106,77 -106,53 z"
       id="path86"
       style="fill:#cccccc" />
    <path
       d="m 1941,5396 c -9,-11 6,-26 75,-76 47,-34 93,-63 101,-64 33,-2 21,20 -30,56 -28,20 -71,50 -93,67 -34,26 -44,29 -53,17 z"
       id="path88"
       style="fill:#cccccc" />
    <path
       d="m 1894,5325 c -4,-9 -5,-17 -3,-19 2,-2 45,-31 96,-64 75,-51 93,-59 103,-47 9,11 -5,25 -77,73 -118,78 -112,76 -119,57 z"
       id="path90"
       style="fill:#cccccc" />
    <path
       d="m 1847,5255 c -8,-19 182,-140 197,-125 7,7 5,15 -4,23 -15,14 -178,117 -184,117 -2,0 -6,-7 -9,-15 z"
       id="path92"
       style="fill:#cccccc" />
    <path
       d="m 1804,5186 c -4,-9 -5,-18 -3,-20 32,-23 199,-113 203,-109 16,16 0,33 -71,73 -43,24 -88,50 -100,58 -20,13 -24,12 -29,-2 z"
       id="path94"
       style="fill:#cccccc" />
    <path
       d="m 1760,5105 c 0,-9 38,-35 93,-62 109,-57 113,-58 120,-40 3,9 -26,30 -93,65 -104,56 -120,60 -120,37 z"
       id="path96"
       style="fill:#cccccc" />
    <path
       d="m 1727,5043 c -4,-3 -7,-10 -7,-15 0,-12 199,-110 210,-103 22,14 5,27 -90,75 -109,55 -104,53 -113,43 z"
       id="path98"
       style="fill:#cccccc" />
    <path
       d="m 1692,4955 c 4,-22 199,-108 212,-95 15,15 3,22 -103,69 -104,46 -114,48 -109,26 z"
       id="path100"
       style="fill:#cccccc" />
    <path
       d="m 5582,5522 c -65,-60 -81,-80 -71,-89 9,-9 30,5 96,64 77,71 92,92 67,99 -5,2 -46,-31 -92,-74 z"
       id="path102"
       style="fill:#cccccc" />
    <path
       d="m 5637,5464 c -77,-66 -97,-94 -67,-94 4,0 41,27 82,61 104,86 101,84 86,97 -10,8 -34,-7 -101,-64 z"
       id="path104"
       style="fill:#cccccc" />
    <path
       d="m 5690,5404 c -90,-69 -98,-78 -80,-89 13,-8 192,125 187,139 -7,22 -26,13 -107,-50 z"
       id="path106"
       style="fill:#cccccc" />
    <path
       d="m 5745,5345 c -83,-61 -114,-95 -85,-95 13,0 176,115 186,131 3,6 2,15 -3,20 -5,5 -45,-18 -98,-56 z"
       id="path108"
       style="fill:#cccccc" />
    <path
       d="m 5783,5274 c -64,-44 -90,-69 -87,-79 7,-17 2,-20 116,57 62,41 86,62 82,73 -4,8 -9,15 -13,15 -3,-1 -47,-30 -98,-66 z"
       id="path110"
       style="fill:#cccccc" />
    <path
       d="m 5832,5210 c -51,-32 -93,-61 -93,-64 -1,-29 17,-24 102,29 115,72 113,69 97,83 -10,8 -36,-4 -106,-48 z"
       id="path112"
       style="fill:#cccccc" />
    <path
       d="m 5872,5142 c -56,-31 -102,-61 -102,-65 0,-23 38,-13 119,34 99,56 103,59 93,76 -5,8 -40,-6 -110,-45 z"
       id="path114"
       style="fill:#cccccc" />
    <path
       d="m 5905,5070 c -90,-49 -105,-62 -85,-75 13,-8 211,97 207,110 -7,20 -34,12 -122,-35 z"
       id="path116"
       style="fill:#cccccc" />
    <path
       d="m 5950,5001 c -52,-26 -96,-50 -98,-54 -13,-28 17,-22 111,22 82,38 105,54 101,65 -3,9 -9,16 -13,15 -3,0 -49,-22 -101,-48 z"
       id="path118"
       style="fill:#cccccc" />
    <path
       d="m 5985,4929 c -100,-44 -114,-54 -99,-69 11,-11 216,78 211,93 -6,20 -22,16 -112,-24 z"
       id="path120"
       style="fill:#cccccc" />
    <path
       d="m 6041,4779 c -58,-21 -106,-40 -107,-42 -2,-1 1,-8 5,-15 12,-19 221,57 221,81 0,22 3,23 -119,-24 z"
       id="path122"
       style="fill:#cccccc" />
    <path
       d="m 6068,4704 c -60,-19 -108,-39 -108,-44 0,-22 27,-19 118,11 104,34 122,43 107,58 -6,6 -51,-3 -117,-25 z"
       id="path124"
       style="fill:#cccccc" />
    <path
       d="m 6090,4628 c -58,-17 -106,-31 -108,-33 -1,-1 0,-9 3,-17 9,-23 225,39 225,65 0,21 7,22 -120,-15 z"
       id="path126"
       style="fill:#cccccc" />
    <path
       d="m 6111,4551 c -96,-24 -126,-41 -103,-55 7,-4 172,33 219,49 12,4 7,36 -6,34 -3,0 -53,-13 -110,-28 z"
       id="path128"
       style="fill:#cccccc" />
    <path
       d="m 6205,4489 c -22,-5 -73,-16 -112,-25 -49,-10 -73,-20 -73,-30 0,-18 7,-18 128,8 84,18 102,25 102,40 0,10 -1,18 -2,17 -2,-1 -21,-5 -43,-10 z"
       id="path130"
       style="fill:#cccccc" />
    <path
       d="m 6135,4394 c -101,-18 -106,-20 -99,-39 4,-9 14,-13 28,-10 11,2 63,12 114,21 64,11 92,20 92,30 0,17 -28,17 -135,-2 z"
       id="path132"
       style="fill:#cccccc" />
    <path
       d="m 6175,4319 c -110,-15 -125,-20 -125,-34 0,-18 18,-18 113,-5 106,16 117,19 117,35 0,17 -13,17 -105,4 z"
       id="path134"
       style="fill:#cccccc" />
    <path
       d="m 6158,4237 c -88,-8 -98,-12 -98,-29 0,-17 5,-19 33,-15 17,4 69,9 115,13 71,6 82,9 82,25 0,12 -7,18 -17,18 -10,-1 -62,-6 -115,-12 z"
       id="path136"
       style="fill:#cccccc" />
    <path
       d="m 1626,4805 c -6,-17 -8,-16 128,-66 54,-19 83,-26 90,-19 15,15 0,24 -94,58 -47,17 -92,33 -101,37 -10,4 -19,0 -23,-10 z"
       id="path138"
       style="fill:#cccccc" />
    <path
       d="m 1600,4724 c 0,-17 67,-44 201,-81 9,-3 19,2 22,10 4,11 -18,22 -94,46 -55,18 -107,35 -115,38 -9,3 -14,-1 -14,-13 z"
       id="path140"
       style="fill:#cccccc" />
    <path
       d="m 1575,4650 c -11,-18 3,-26 102,-54 105,-30 123,-32 123,-12 0,8 -35,23 -97,41 -54,15 -103,30 -109,32 -7,2 -15,-1 -19,-7 z"
       id="path142"
       style="fill:#cccccc" />
    <path
       d="m 1555,4572 c -18,-18 6,-31 97,-52 56,-12 109,-25 116,-28 9,-3 13,1 10,13 -2,15 -27,25 -110,46 -59,14 -110,24 -113,21 z"
       id="path144"
       style="fill:#cccccc" />
    <path
       d="m 1535,4492 c -19,-19 6,-31 106,-51 90,-18 113,-20 120,-10 4,8 7,14 6,16 -7,6 -227,49 -232,45 z"
       id="path146"
       style="fill:#cccccc" />
    <path
       d="m 1520,4396 c 0,-15 9,-18 120,-36 36,-6 75,-14 88,-17 17,-4 22,-1 22,14 0,16 -14,21 -102,36 -123,21 -128,21 -128,3 z"
       id="path148"
       style="fill:#cccccc" />
    <path
       d="m 1505,4319 c -11,-16 -3,-19 96,-34 120,-19 139,-19 139,0 0,8 -3,15 -7,15 -5,0 -51,7 -103,15 -115,18 -117,18 -125,4 z"
       id="path150"
       style="fill:#cccccc" />
    <path
       d="m 1496,4241 c -13,-21 4,-28 81,-35 43,-4 95,-10 116,-13 32,-5 37,-3 37,14 0,18 -9,21 -87,27 -48,4 -99,10 -114,13 -15,3 -30,0 -33,-6 z"
       id="path152"
       style="fill:#cccccc" />
    <path
       d="m 1586,3756 c -79,-10 -113,-25 -89,-39 4,-3 57,0 118,7 91,9 110,14 113,29 4,20 -7,20 -142,3 z"
       id="path154"
       style="fill:#cccccc" />
    <path
       d="m 1588,3676 c -83,-13 -98,-20 -81,-37 8,-8 42,-6 117,5 59,9 109,16 111,16 3,0 5,7 5,15 0,18 -39,18 -152,1 z"
       id="path156"
       style="fill:#cccccc" />
    <path
       d="m 1628,3600 c -121,-23 -119,-22 -109,-39 8,-12 26,-11 120,5 93,15 111,21 111,36 0,21 2,21 -122,-2 z"
       id="path158"
       style="fill:#cccccc" />
    <path
       d="m 1622,3517 c -73,-16 -92,-24 -89,-36 2,-9 7,-15 13,-15 5,1 57,12 116,24 81,17 105,26 101,36 -7,18 -27,17 -141,-9 z"
       id="path160"
       style="fill:#cccccc" />
    <path
       d="m 1655,3443 c -55,-14 -102,-27 -104,-29 -2,-2 -1,-10 2,-18 8,-21 220,33 225,57 4,21 -1,21 -123,-10 z"
       id="path162"
       style="fill:#cccccc" />
    <path
       d="m 1665,3361 c -60,-18 -90,-32 -90,-41 0,-19 -2,-19 123,15 64,18 102,33 102,42 0,19 -32,15 -135,-16 z"
       id="path164"
       style="fill:#cccccc" />
    <path
       d="m 1698,3287 c -79,-25 -98,-35 -98,-50 0,-11 5,-17 13,-14 6,2 58,19 113,37 72,24 100,38 97,47 -7,17 -10,16 -125,-20 z"
       id="path166"
       style="fill:#cccccc" />
    <path
       d="m 1745,3219 c -120,-44 -125,-47 -119,-63 5,-12 24,-8 112,23 61,22 107,44 107,51 0,22 -17,20 -100,-11 z"
       id="path168"
       style="fill:#cccccc" />
    <path
       d="m 6062,3754 c 3,-15 16,-20 68,-26 36,-4 86,-9 113,-12 41,-4 47,-3 47,13 0,16 -11,19 -72,25 -40,4 -93,9 -116,13 -39,5 -44,4 -40,-13 z"
       id="path170"
       style="fill:#cccccc" />
    <path
       d="m 6050,3675 c 0,-8 3,-15 8,-15 4,0 50,-7 102,-15 118,-18 120,-18 120,0 0,16 -11,19 -117,35 -96,13 -113,13 -113,-5 z"
       id="path172"
       style="fill:#cccccc" />
    <path
       d="m 6037,3605 c -8,-19 -7,-19 108,-39 110,-20 125,-20 125,-2 0,15 -9,18 -120,36 -36,6 -75,14 -86,16 -14,4 -23,0 -27,-11 z"
       id="path174"
       style="fill:#cccccc" />
    <path
       d="m 6020,3526 c 0,-10 20,-19 58,-26 31,-7 83,-18 115,-25 53,-12 57,-12 57,5 0,14 -19,21 -100,39 -119,25 -130,25 -130,7 z"
       id="path176"
       style="fill:#cccccc" />
    <path
       d="m 6005,3460 c -12,-19 4,-26 115,-53 78,-19 106,-23 112,-14 11,18 1,22 -97,46 -49,12 -97,24 -107,27 -9,3 -19,0 -23,-6 z"
       id="path178"
       style="fill:#cccccc" />
    <path
       d="m 5986,3383 c -6,-16 7,-22 119,-53 43,-12 85,-24 92,-27 8,-3 13,2 13,13 0,16 -21,25 -110,50 -88,25 -110,28 -114,17 z"
       id="path180"
       style="fill:#cccccc" />
    <path
       d="m 5965,3309 c -10,-16 -5,-18 109,-54 65,-20 108,-29 112,-23 10,16 -5,24 -106,57 -107,35 -106,35 -115,20 z"
       id="path182"
       style="fill:#cccccc" />
    <path
       d="m 5937,3236 c -4,-10 25,-25 104,-54 90,-33 111,-37 116,-26 7,19 14,15 -103,57 -115,42 -110,41 -117,23 z"
       id="path184"
       style="fill:#cccccc" />
    <path
       d="m 1783,3063 c -70,-32 -100,-50 -96,-59 7,-19 9,-19 119,30 88,39 120,64 89,72 -5,1 -56,-18 -112,-43 z"
       id="path186"
       style="fill:#cccccc" />
    <path
       d="m 1818,2989 c -92,-46 -110,-61 -90,-73 14,-8 214,93 210,106 -7,21 -22,18 -120,-33 z"
       id="path188"
       style="fill:#cccccc" />
    <path
       d="m 1853,2918 c -51,-27 -93,-56 -93,-64 0,-23 20,-17 121,39 58,31 94,57 92,65 -7,19 -20,14 -120,-40 z"
       id="path190"
       style="fill:#cccccc" />
    <path
       d="m 1897,2851 c -63,-36 -96,-61 -94,-71 1,-8 5,-15 9,-15 17,0 198,111 198,122 0,24 -17,19 -113,-36 z"
       id="path192"
       style="fill:#cccccc" />
    <path
       d="m 1941,2784 c -100,-64 -102,-66 -93,-81 10,-15 197,97 197,117 0,25 -20,18 -104,-36 z"
       id="path194"
       style="fill:#cccccc" />
    <path
       d="m 1983,2716 c -86,-57 -105,-77 -84,-90 4,-3 50,23 101,59 110,76 103,70 88,82 -10,8 -38,-6 -105,-51 z"
       id="path196"
       style="fill:#cccccc" />
    <path
       d="m 2022,2644 c -73,-52 -90,-69 -81,-80 8,-10 29,0 104,54 88,62 104,81 79,89 -6,2 -52,-26 -102,-63 z"
       id="path198"
       style="fill:#cccccc" />
    <path
       d="m 2073,2584 c -74,-59 -102,-94 -73,-94 18,0 180,132 180,147 0,24 -25,12 -107,-53 z"
       id="path200"
       style="fill:#cccccc" />
    <path
       d="m 2122,2519 c -75,-63 -94,-89 -68,-91 15,-2 176,135 176,149 0,26 -26,12 -108,-58 z"
       id="path202"
       style="fill:#cccccc" />
    <path
       d="m 2178,2462 c -50,-44 -84,-81 -81,-89 3,-7 8,-13 12,-13 11,0 166,143 169,156 8,32 -21,16 -100,-54 z"
       id="path204"
       style="fill:#cccccc" />
    <path
       d="m 2230,2401 c -69,-65 -83,-82 -72,-92 10,-11 27,1 94,69 54,53 79,85 73,91 -7,7 -39,-17 -95,-68 z"
       id="path206"
       style="fill:#cccccc" />
    <path
       d="m 5882,3093 c 2,-10 41,-33 101,-60 91,-40 117,-45 117,-24 0,8 -198,101 -214,101 -4,0 -6,-8 -4,-17 z"
       id="path208"
       style="fill:#cccccc" />
    <path
       d="m 5847,3027 c -3,-9 30,-31 99,-65 57,-29 106,-52 108,-52 2,0 7,7 10,16 5,12 -18,27 -99,65 -57,27 -106,49 -108,49 -3,0 -7,-6 -10,-13 z"
       id="path210"
       style="fill:#cccccc" />
    <path
       d="m 5815,2959 c -9,-14 -11,-13 96,-70 85,-45 119,-54 119,-32 0,8 -190,113 -203,113 -3,0 -9,-5 -12,-11 z"
       id="path212"
       style="fill:#cccccc" />
    <path
       d="m 5777,2896 c -7,-17 -4,-20 101,-80 47,-28 89,-46 98,-42 8,3 13,10 10,15 -4,6 -142,88 -197,118 -4,1 -9,-4 -12,-11 z"
       id="path214"
       style="fill:#cccccc" />
    <path
       d="m 5737,2826 c -4,-9 25,-33 86,-71 103,-63 111,-66 115,-45 1,10 -32,36 -92,73 -51,31 -96,57 -99,57 -2,0 -7,-6 -10,-14 z"
       id="path216"
       style="fill:#cccccc" />
    <path
       d="m 5696,2765 c -3,-10 24,-34 90,-80 53,-36 97,-65 99,-65 2,0 5,7 9,15 4,11 -20,32 -82,73 -114,77 -109,74 -116,57 z"
       id="path218"
       style="fill:#cccccc" />
    <path
       d="m 5652,2695 c 2,-8 43,-44 93,-80 74,-54 91,-62 98,-49 5,8 7,17 5,18 -95,70 -178,126 -187,126 -7,0 -11,-7 -9,-15 z"
       id="path220"
       style="fill:#cccccc" />
    <path
       d="m 5605,2639 c -4,-6 0,-16 8,-22 9,-7 50,-39 92,-71 57,-44 79,-56 88,-47 13,13 17,9 -87,90 -82,64 -91,68 -101,50 z"
       id="path222"
       style="fill:#cccccc" />
    <path
       d="m 5555,2581 c -3,-5 35,-43 84,-85 70,-60 91,-73 100,-62 8,10 -9,29 -74,84 -85,72 -99,80 -110,63 z"
       id="path224"
       style="fill:#cccccc" />
    <path
       d="m 5511,2526 c -8,-10 8,-30 74,-90 75,-68 105,-84 105,-57 0,5 -38,43 -84,85 -67,60 -86,73 -95,62 z"
       id="path226"
       style="fill:#cccccc" />
    <path
       d="m 5454,2468 c -5,-8 23,-41 76,-90 83,-78 100,-89 100,-65 0,13 -150,167 -162,167 -4,0 -10,-5 -14,-12 z"
       id="path228"
       style="fill:#cccccc" />
    <path
       d="m 2286,2343 c -58,-61 -77,-86 -69,-94 15,-15 20,-11 102,80 52,57 68,81 58,88 -8,6 -36,-16 -91,-74 z"
       id="path230"
       style="fill:#cccccc" />
    <path
       d="m 2345,2290 c -77,-88 -82,-95 -63,-103 13,-4 160,152 160,170 -2,27 -35,4 -97,-67 z"
       id="path232"
       style="fill:#cccccc" />
    <path
       d="m 2402,2234 c -65,-78 -78,-104 -52,-104 12,0 150,164 150,179 0,28 -31,4 -98,-75 z"
       id="path234"
       style="fill:#cccccc" />
    <path
       d="m 2467,2186 c -68,-85 -78,-106 -54,-106 15,0 147,161 147,179 0,29 -33,3 -93,-73 z"
       id="path236"
       style="fill:#cccccc" />
    <path
       d="m 2558,2177 c -20,-29 -50,-71 -67,-93 -26,-34 -29,-44 -17,-53 11,-9 26,6 76,75 34,47 63,93 64,101 2,33 -20,20 -56,-30 z"
       id="path238"
       style="fill:#cccccc" />
    <path
       d="m 2597,2094 c -37,-53 -64,-101 -61,-105 13,-21 33,-2 91,85 49,75 59,97 49,105 -10,9 -28,-11 -79,-85 z"
       id="path240"
       style="fill:#cccccc" />
    <path
       d="m 2694,2098 c -15,-24 -42,-67 -61,-97 -27,-42 -32,-56 -21,-62 16,-10 22,-4 87,99 47,77 55,102 31,102 -6,0 -22,-19 -36,-42 z"
       id="path242"
       style="fill:#cccccc" />
    <path
       d="m 2728,2002 c -48,-83 -54,-98 -40,-106 10,-6 17,-6 19,0 2,5 28,50 57,99 30,50 52,93 49,98 -12,20 -33,-2 -85,-91 z"
       id="path244"
       style="fill:#cccccc" />
    <path
       d="m 2802,1970 c -48,-91 -56,-120 -32,-120 13,0 112,191 106,206 -10,26 -21,13 -74,-86 z"
       id="path246"
       style="fill:#cccccc" />
    <path
       d="m 2886,1963 c -58,-117 -67,-141 -50,-147 10,-4 29,24 64,95 47,92 53,119 30,119 -6,0 -25,-30 -44,-67 z"
       id="path248"
       style="fill:#cccccc" />
    <path
       d="m 2981,1978 c -5,-13 -25,-58 -45,-102 -41,-88 -43,-99 -20,-94 18,3 108,194 98,209 -9,16 -24,10 -33,-13 z"
       id="path250"
       style="fill:#cccccc" />
    <path
       d="m 5402,2418 c -16,-20 146,-182 168,-168 12,8 -2,26 -71,95 -69,70 -88,84 -97,73 z"
       id="path252"
       style="fill:#cccccc" />
    <path
       d="m 5345,2361 c -3,-6 29,-48 71,-95 60,-67 80,-83 90,-75 11,9 -2,28 -62,95 -76,84 -88,92 -99,75 z"
       id="path254"
       style="fill:#cccccc" />
    <path
       d="m 5286,2312 c -7,-11 131,-177 146,-177 27,0 14,25 -52,103 -68,79 -83,91 -94,74 z"
       id="path256"
       style="fill:#cccccc" />
    <path
       d="m 5232,2267 c -8,-9 5,-34 56,-99 63,-82 84,-99 96,-80 4,6 -107,159 -137,189 -2,2 -9,-2 -15,-10 z"
       id="path258"
       style="fill:#cccccc" />
    <path
       d="m 5165,2220 c -6,-10 121,-190 135,-190 26,0 14,28 -46,109 -65,90 -77,101 -89,81 z"
       id="path260"
       style="fill:#cccccc" />
    <path
       d="m 5110,2180 c -11,-7 0,-29 49,-104 35,-53 67,-96 72,-96 24,0 13,29 -44,114 -47,71 -66,93 -77,86 z"
       id="path262"
       style="fill:#cccccc" />
    <path
       d="m 5038,2134 c -9,-8 115,-204 127,-200 19,6 8,34 -46,120 -50,79 -66,95 -81,80 z"
       id="path264"
       style="fill:#cccccc" />
    <path
       d="m 4970,2091 c 0,-15 112,-201 120,-201 25,0 16,29 -35,115 -30,52 -62,95 -70,95 -8,0 -15,-4 -15,-9 z"
       id="path266"
       style="fill:#cccccc" />
    <path
       d="m 4912,2061 c -9,-5 1,-32 38,-104 53,-100 63,-113 80,-102 7,4 -9,44 -40,103 -60,112 -61,114 -78,103 z"
       id="path268"
       style="fill:#cccccc" />
    <path
       d="m 4837,2024 c -5,-5 85,-198 99,-213 3,-3 10,1 16,7 9,9 1,35 -37,112 -45,92 -61,111 -78,94 z"
       id="path270"
       style="fill:#cccccc" />
    <path
       d="m 4774,1994 c -16,-7 77,-215 94,-212 7,2 14,6 15,9 3,8 -87,209 -93,208 -3,0 -10,-3 -16,-5 z"
       id="path272"
       style="fill:#cccccc" />
    <path
       d="m 3125,1923 c -53,-135 -72,-202 -60,-207 8,-3 17,-2 19,3 8,13 76,203 76,212 0,16 -28,9 -35,-8 z"
       id="path274"
       style="fill:#cccccc" />
    <path
       d="m 3171,1818 c -19,-57 -36,-109 -38,-115 -3,-8 3,-13 14,-13 15,0 25,20 52,101 30,93 34,129 13,129 -4,0 -23,-46 -41,-102 z"
       id="path276"
       style="fill:#cccccc" />
    <path
       d="m 3243,1783 c -25,-91 -28,-109 -16,-116 8,-5 16,-7 17,-5 2,1 15,48 31,103 15,55 30,106 32,113 3,7 -3,12 -14,12 -16,0 -25,-18 -50,-107 z"
       id="path278"
       style="fill:#cccccc" />
    <path
       d="m 3341,1842 c -47,-181 -50,-193 -35,-199 8,-3 16,-4 18,-2 3,4 56,214 56,223 0,2 -7,6 -15,10 -10,4 -17,-5 -24,-32 z"
       id="path280"
       style="fill:#cccccc" />
    <path
       d="m 3400,1749 c -17,-81 -20,-113 -11,-122 6,-6 13,-9 15,-6 3,3 16,55 29,117 19,93 21,112 9,117 -7,3 -15,5 -16,5 -2,0 -13,-50 -26,-111 z"
       id="path282"
       style="fill:#cccccc" />
    <path
       d="m 3496,1828 c -6,-18 -36,-193 -36,-207 0,-21 30,-11 35,12 8,38 35,189 35,198 0,14 -30,11 -34,-3 z"
       id="path284"
       style="fill:#cccccc" />
    <path
       d="m 3557,1718 c -11,-83 -13,-115 -4,-120 20,-12 24,-1 37,104 15,123 15,122 -3,126 -10,2 -18,-25 -30,-110 z"
       id="path286"
       style="fill:#cccccc" />
    <path
       d="m 3649,1818 c 0,-2 -6,-53 -13,-115 -10,-94 -10,-113 1,-117 18,-7 21,2 33,109 13,118 13,125 -5,125 -8,0 -15,-1 -16,-2 z"
       id="path288"
       style="fill:#cccccc" />
    <path
       d="m 4628,1935 c -4,-5 67,-213 75,-222 2,-1 8,2 16,6 10,7 5,31 -26,115 -34,95 -48,117 -65,101 z"
       id="path290"
       style="fill:#cccccc" />
    <path
       d="m 4562,1912 c -16,-11 53,-222 74,-222 18,0 19,-3 -17,114 -34,110 -38,119 -57,108 z"
       id="path292"
       style="fill:#cccccc" />
    <path
       d="m 4491,1891 c -10,-7 -7,-30 18,-116 16,-59 33,-110 36,-113 3,-3 10,-1 16,5 8,8 2,42 -20,118 -16,59 -32,109 -33,111 -2,1 -10,-1 -17,-5 z"
       id="path294"
       style="fill:#cccccc" />
    <path
       d="m 4410,1853 c 0,-24 47,-203 54,-211 4,-3 11,-1 17,5 14,14 -39,223 -57,223 -8,0 -14,-8 -14,-17 z"
       id="path296"
       style="fill:#cccccc" />
    <path
       d="m 4336,1851 c -7,-11 34,-212 46,-226 5,-5 12,-5 18,1 9,9 -14,142 -36,217 -6,18 -19,22 -28,8 z"
       id="path298"
       style="fill:#cccccc" />
    <path
       d="m 4260,1823 c 0,-10 7,-62 17,-115 14,-82 19,-98 35,-98 14,0 17,6 13,23 -2,12 -12,64 -21,115 -11,64 -20,92 -30,92 -8,0 -14,-8 -14,-17 z"
       id="path300"
       style="fill:#cccccc" />
    <path
       d="m 4180,1821 c 0,-36 32,-217 40,-225 19,-19 21,24 8,126 -11,83 -17,103 -31,106 -9,2 -17,-1 -17,-7 z"
       id="path302"
       style="fill:#cccccc" />
    <path
       d="m 4109,1815 c -6,-5 16,-223 22,-230 3,-2 11,0 18,4 11,7 11,28 1,120 -12,102 -21,127 -41,106 z"
       id="path304"
       style="fill:#cccccc" />
  </g>
</svg>
