<?xml version="1.0" standalone="no"?>
<!DOCTYPE svg PUBLIC "-//W3C//DTD SVG 20010904//EN"
 "http://www.w3.org/TR/2001/REC-SVG-20010904/DTD/svg10.dtd">
<svg version="1.0" xmlns="http://www.w3.org/2000/svg"
 width="684.000000pt" height="676.000000pt" viewBox="0 0 684.000000 676.000000"
 preserveAspectRatio="xMidYMid meet">

<g transform="translate(0.000000,676.000000) scale(0.100000,-0.100000)"
fill="#000000" stroke="none">
<path d="M3389 6513 c-280 -852 -579 -1727 -619 -1810 -108 -227 -288 -440
-477 -566 -197 -131 -293 -174 -642 -292 -119 -40 -378 -130 -576 -200 -198
-70 -476 -168 -617 -217 -142 -50 -258 -94 -258 -97 0 -4 336 -118 748 -254
841 -278 1050 -351 1168 -406 309 -145 557 -409 684 -726 77 -192 365 -1009
603 -1712 23 -68 45 -123 48 -123 4 0 101 282 217 628 312 932 405 1189 489
1352 134 260 344 466 598 586 102 49 425 164 1570 559 298 103 365 127 365
131 0 1 -280 96 -622 209 -944 315 -1248 420 -1334 466 -138 72 -242 148 -347
253 -146 145 -247 299 -322 496 -48 123 -615 1723 -632 1783 -9 31 -18 18 -44
-60z m-33 -1129 l-1 -686 -115 -28 c-386 -92 -360 -87 -360 -68 0 6 33 115 74
242 66 204 115 362 293 936 76 247 94 300 102 296 4 -3 7 -314 7 -692z m349
-818 c226 -51 417 -149 578 -296 66 -61 181 -194 203 -235 6 -11 25 -46 42
-79 215 -399 198 -903 -43 -1278 -49 -75 -122 -167 -184 -228 -60 -59 -193
-163 -236 -183 -22 -11 -43 -24 -46 -29 -6 -9 -100 -46 -217 -84 -196 -64
-479 -72 -672 -17 -170 48 -253 83 -330 138 -25 18 -60 40 -78 49 -51 26 -251
231 -309 317 -245 359 -292 788 -129 1188 83 205 274 432 470 559 134 87 308
155 480 188 93 18 374 12 471 -10z m1323 -757 c158 -50 350 -110 427 -134 77
-24 266 -83 420 -130 154 -48 295 -92 313 -97 18 -5 30 -13 27 -19 -4 -5 -273
-9 -695 -9 l-689 0 -10 38 c-14 53 -101 429 -101 436 0 12 24 5 308 -85z
m-2948 -666 c18 -76 43 -182 56 -237 14 -54 23 -101 20 -103 -3 -3 -60 13
-128 35 -105 35 -428 136 -1078 338 -265 83 -280 88 -280 96 0 4 310 8 689 8
l689 0 32 -137z m1907 -1095 c-2 -13 -52 -171 -110 -353 -58 -181 -155 -494
-216 -695 -62 -201 -118 -378 -126 -395 -12 -26 -14 63 -14 667 l-1 697 38 6
c20 4 46 9 57 13 11 3 25 7 30 8 6 1 42 9 80 18 39 9 104 24 145 35 105 27
124 27 117 -1z"/>
</g>
</svg>
